<svg width="200" height="200" viewBox="0 0 200 200" fill="none" xmlns="http://www.w3.org/2000/svg">
<path d="M96.0919 44C97.0098 44 97.8001 44.1288 98.463 44.3865C99.1258 44.5926 99.7122 44.9791 100.222 45.546C100.783 46.1128 101.293 46.86 101.752 47.7876C102.211 48.7152 102.695 49.8489 103.205 51.1887L138.312 145.956C138.567 146.678 138.745 147.322 138.847 147.889C138.949 148.455 139 149.022 139 149.589C139 151.444 138.439 152.81 137.317 153.686C136.247 154.562 135.099 155 133.876 155H90.5085C89.1828 155 88.061 154.845 87.1432 154.536C86.2764 154.175 85.537 153.763 84.9251 153.299C84.3133 152.836 83.8289 152.346 83.4719 151.831C83.166 151.315 82.962 150.852 82.86 150.439L82.0187 147.734H60.5264L59.991 150.053C59.8381 150.826 59.6596 151.522 59.4557 152.14C59.2517 152.707 58.9967 153.222 58.6908 153.686C58.3849 154.098 57.9515 154.433 57.3906 154.691C56.8807 154.897 56.1923 155 55.3255 155H47.4475C45.8158 155 45 154.356 45 153.068C45 152.604 45.0765 152.063 45.2295 151.444C45.4334 150.774 45.6884 150.001 45.9943 149.125L77.965 51.3433C78.7299 48.9213 79.5967 47.1177 80.5655 45.9325C81.5343 44.7472 82.911 44.1031 84.6957 44H96.0919ZM62.8975 138.226H79.4182L70.9284 108.003L62.8975 138.226ZM96.9333 52.9666C96.5254 51.8844 96.0155 51.2145 95.4036 50.9568C94.8427 50.6476 93.8484 50.493 92.4207 50.493H89.7437L125.921 148.507H129.592C130.51 148.507 131.122 148.327 131.428 147.966C131.785 147.554 131.759 146.832 131.352 145.802L96.9333 52.9666Z" fill="white"/>
<path d="M142.344 51.3125H150.281C150.719 51.3125 150.938 51.5312 150.938 51.9688V57.3125C150.938 57.7708 150.719 58 150.281 58H142.344V65.9375C142.344 66.375 142.115 66.5938 141.656 66.5938H136.312C135.875 66.5938 135.656 66.375 135.656 65.9375V58H127.719C127.281 58 127.062 57.7708 127.062 57.3125V51.9688C127.062 51.5312 127.281 51.3125 127.719 51.3125H135.656V43.375C135.656 42.9375 135.875 42.7188 136.312 42.7188H141.656C142.115 42.7188 142.344 42.9375 142.344 43.375V51.3125Z" fill="white"/>
</svg>
